<svg width="116" height="54" viewBox="0 0 116 54" fill="none" xmlns="http://www.w3.org/2000/svg">
<path d="M0.539773 41V0.272726H16.8466C19.8428 0.272726 22.3419 0.716855 24.3438 1.60511C26.3456 2.49337 27.8504 3.72633 28.858 5.30398C29.8655 6.86837 30.3693 8.6714 30.3693 10.7131C30.3693 12.304 30.0511 13.7027 29.4148 14.9091C28.7784 16.1023 27.9034 17.0833 26.7898 17.8523C25.6894 18.608 24.4299 19.1449 23.0114 19.4631V19.8608C24.5625 19.9271 26.0142 20.3646 27.3665 21.1733C28.732 21.982 29.839 23.1155 30.6875 24.5739C31.536 26.0189 31.9602 27.7424 31.9602 29.7443C31.9602 31.9053 31.4233 33.8343 30.3494 35.5312C29.2888 37.215 27.7178 38.5473 25.6364 39.5284C23.5549 40.5095 20.9896 41 17.9403 41H0.539773ZM9.15057 33.9602H16.1705C18.5701 33.9602 20.3201 33.5028 21.4205 32.5881C22.5208 31.66 23.071 30.4271 23.071 28.8892C23.071 27.7623 22.7992 26.768 22.2557 25.9062C21.7121 25.0445 20.9366 24.3684 19.929 23.8778C18.9347 23.3873 17.7481 23.142 16.3693 23.142H9.15057V33.9602ZM9.15057 17.3153H15.5341C16.714 17.3153 17.7614 17.1098 18.6761 16.6989C19.6042 16.2746 20.3333 15.678 20.8636 14.9091C21.4072 14.1402 21.679 13.2188 21.679 12.1449C21.679 10.6733 21.1553 9.48674 20.108 8.58523C19.0739 7.68371 17.6023 7.23295 15.6932 7.23295H9.15057V17.3153ZM45.8757 0.272726V41H37.4041V0.272726H45.8757ZM66.4631 41.5966C63.3741 41.5966 60.7027 40.9403 58.4489 39.6278C56.2083 38.3021 54.4782 36.4593 53.2585 34.0994C52.0388 31.7263 51.429 28.9754 51.429 25.8466C51.429 22.6913 52.0388 19.9337 53.2585 17.5739C54.4782 15.2008 56.2083 13.358 58.4489 12.0455C60.7027 10.7197 63.3741 10.0568 66.4631 10.0568C69.5521 10.0568 72.2169 10.7197 74.4574 12.0455C76.7112 13.358 78.4479 15.2008 79.6676 17.5739C80.8873 19.9337 81.4972 22.6913 81.4972 25.8466C81.4972 28.9754 80.8873 31.7263 79.6676 34.0994C78.4479 36.4593 76.7112 38.3021 74.4574 39.6278C72.2169 40.9403 69.5521 41.5966 66.4631 41.5966ZM66.5028 35.0341C67.9081 35.0341 69.0814 34.6364 70.0227 33.8409C70.964 33.0322 71.6733 31.9318 72.1506 30.5398C72.6411 29.1477 72.8864 27.5634 72.8864 25.7869C72.8864 24.0104 72.6411 22.4261 72.1506 21.0341C71.6733 19.642 70.964 18.5417 70.0227 17.733C69.0814 16.9242 67.9081 16.5199 66.5028 16.5199C65.0843 16.5199 63.8911 16.9242 62.9233 17.733C61.9688 18.5417 61.2462 19.642 60.7557 21.0341C60.2784 22.4261 60.0398 24.0104 60.0398 25.7869C60.0398 27.5634 60.2784 29.1477 60.7557 30.5398C61.2462 31.9318 61.9688 33.0322 62.9233 33.8409C63.8911 34.6364 65.0843 35.0341 66.5028 35.0341ZM100.767 53.0909C98.0227 53.0909 95.6695 52.7131 93.7074 51.9574C91.7585 51.215 90.2074 50.2008 89.054 48.9148C87.9006 47.6288 87.1515 46.1837 86.8068 44.5795L94.642 43.5256C94.8807 44.1354 95.2585 44.7055 95.7756 45.2358C96.2926 45.7661 96.9754 46.1903 97.8239 46.5085C98.6856 46.84 99.733 47.0057 100.966 47.0057C102.809 47.0057 104.327 46.5549 105.52 45.6534C106.726 44.7652 107.33 43.2737 107.33 41.179V35.5909H106.972C106.6 36.4394 106.044 37.2415 105.301 37.9972C104.559 38.7528 103.604 39.3693 102.438 39.8466C101.271 40.3239 99.8788 40.5625 98.2614 40.5625C95.9678 40.5625 93.8797 40.0322 91.9972 38.9716C90.1278 37.8977 88.6364 36.2604 87.5227 34.0597C86.4223 31.8456 85.8722 29.0483 85.8722 25.6676C85.8722 22.2074 86.4356 19.3172 87.5625 16.9972C88.6894 14.6771 90.1875 12.9403 92.0568 11.7869C93.9394 10.6335 96.0009 10.0568 98.2415 10.0568C99.9517 10.0568 101.384 10.3485 102.537 10.9318C103.69 11.5019 104.618 12.2178 105.321 13.0795C106.037 13.928 106.587 14.7633 106.972 15.5852H107.29V10.4545H115.702V41.2983C115.702 43.8968 115.065 46.071 113.793 47.821C112.52 49.571 110.757 50.8835 108.503 51.7585C106.262 52.6468 103.684 53.0909 100.767 53.0909ZM100.946 34.1989C102.312 34.1989 103.465 33.8608 104.406 33.1847C105.361 32.4953 106.09 31.5142 106.594 30.2415C107.111 28.9555 107.369 27.4176 107.369 25.6278C107.369 23.8381 107.117 22.2869 106.614 20.9744C106.11 19.6487 105.381 18.6212 104.426 17.892C103.472 17.1629 102.312 16.7983 100.946 16.7983C99.554 16.7983 98.3807 17.1761 97.4261 17.9318C96.4716 18.6742 95.7491 19.7083 95.2585 21.0341C94.768 22.3598 94.5227 23.8911 94.5227 25.6278C94.5227 27.3911 94.768 28.9157 95.2585 30.2017C95.7623 31.4744 96.4848 32.4621 97.4261 33.1648C98.3807 33.8542 99.554 34.1989 100.946 34.1989Z" fill="#6C1BDB"/>
</svg>
